<svg version="1.1" id="Layer_1" xmlns="http://www.w3.org/2000/svg" xmlns:xlink="http://www.w3.org/1999/xlink" x="0px" y="0px"
	 width="100%" viewBox="0 0 200 200" enable-background="new 0 0 200 200" xml:space="preserve">
<path fill="#0E1623" opacity="1.000000" stroke="none" 
	d="
M121.000000,201.000000 
	C80.691574,201.000000 40.883148,201.000000 1.037362,201.000000 
	C1.037362,134.399948 1.037362,67.799866 1.037362,1.099894 
	C67.558250,1.099894 134.116699,1.099894 200.837585,1.099894 
	C200.837585,67.666344 200.837585,134.333145 200.837585,201.000000 
	C174.466812,201.000000 147.983414,201.000000 121.000000,201.000000 
M38.635761,108.958755 
	C43.641762,109.851013 48.135014,109.345314 50.965508,103.829483 
	C49.296818,103.447624 47.556156,103.309074 46.201298,103.966103 
	C42.640087,105.693069 39.346218,105.788239 36.754261,102.621658 
	C34.380074,99.721153 34.397720,96.305702 36.843716,93.469154 
	C39.470592,90.422836 42.695717,90.325378 46.278572,92.290245 
	C47.554817,92.990143 49.446770,92.567322 52.274704,92.724739 
	C47.700081,86.937134 43.222912,85.845078 38.219032,87.483116 
	C33.918240,88.890999 31.429735,92.151657 30.977184,96.731903 
	C30.420937,102.361641 32.826057,106.347397 38.635761,108.958755 
M72.194916,108.980164 
	C74.363777,109.054474 76.549324,108.984947 78.697891,109.234192 
	C82.688858,109.697151 86.039482,108.311600 86.860695,104.483055 
	C87.449120,101.739853 87.010063,98.096031 85.568832,95.752129 
	C83.223640,91.938072 79.099655,92.549690 75.298935,94.232422 
	C75.110046,91.725266 74.939980,89.467896 74.783325,87.388527 
	C72.613678,87.388527 70.856895,87.388527 69.730583,87.388527 
	C70.176155,92.381866 70.627571,97.108803 71.007538,101.841484 
	C71.192345,104.143372 71.243576,106.455978 72.194916,108.980164 
M147.024246,93.348946 
	C145.590271,92.631195 144.162704,91.900246 142.720703,91.198990 
	C140.872192,90.300034 139.012070,89.424965 137.156952,88.539604 
	C136.883499,88.958763 136.610046,89.377930 136.336578,89.797089 
	C137.355545,91.257294 138.170258,92.931526 139.432831,94.136467 
	C142.843765,97.391632 142.232407,100.517845 139.543365,103.746399 
	C139.333374,103.998535 138.900818,104.142899 138.820084,104.411896 
	C138.436249,105.690796 138.138458,106.995529 137.810043,108.291061 
	C139.218964,107.917992 140.849670,107.867096 141.979874,107.089119 
	C143.347992,106.147369 144.292786,104.590591 145.395233,103.329170 
	C148.683624,105.450768 149.607025,111.364670 155.383713,107.867577 
	C152.900085,104.841064 150.531494,101.954727 148.184845,99.095131 
	C150.378845,96.152771 152.411728,93.426453 154.444626,90.700142 
	C154.086761,90.199341 153.728882,89.698540 153.371017,89.197739 
	C151.436020,90.408813 149.501007,91.619896 147.024246,93.348946 
M94.083130,103.322624 
	C97.682762,103.111549 101.282394,102.900482 104.859177,102.690750 
	C105.022484,97.065941 102.995110,93.773323 98.790787,93.118225 
	C94.776054,92.492668 91.532104,93.851410 89.819176,97.758545 
	C88.049232,101.795723 89.002480,105.315498 92.479881,107.932999 
	C95.892494,110.501724 100.465744,109.717079 104.621353,105.492348 
	C102.493599,105.363846 101.044373,105.358185 99.619316,105.169754 
	C97.792023,104.928146 95.984169,104.539528 94.083130,103.322624 
M67.998878,95.296333 
	C67.355461,94.648247 66.575676,93.380806 66.098129,93.485962 
	C65.209480,93.681633 64.171066,94.523720 63.773834,95.368797 
	C62.703587,97.645691 61.938026,100.065804 60.827816,103.025475 
	C56.475590,93.212425 56.475590,93.212425 52.827534,94.365829 
	C54.363209,98.038979 55.829708,101.723412 57.442394,105.342690 
	C58.540874,107.807976 59.436539,109.932114 55.913692,111.345039 
	C55.168255,111.644020 55.075706,113.570862 54.593948,115.012115 
	C59.770550,115.279587 61.651718,112.434776 62.975895,109.033188 
	C64.661255,104.703781 66.207657,100.320282 67.998878,95.296333 
M122.707207,95.941780 
	C121.099449,97.640808 119.903740,99.439598 122.183464,101.441956 
	C125.342911,104.217026 126.175102,110.558311 133.031387,108.532120 
	C130.554565,105.191368 128.308395,102.161736 125.969223,99.006653 
	C128.366547,95.738327 130.664627,92.605301 132.984039,89.443192 
	C126.774986,87.229233 125.861557,92.718048 122.707207,95.941780 
M162.939224,89.038872 
	C161.596146,89.122581 160.253082,89.206291 157.389206,89.384789 
	C166.782288,96.079918 165.887283,102.323898 157.576630,108.688400 
	C166.781540,110.031372 166.950302,102.163780 171.298828,99.159210 
	C168.516235,95.540543 166.102036,92.400970 162.939224,89.038872 
M107.103096,106.144981 
	C106.820145,109.655777 108.743721,109.358841 109.903831,107.861618 
	C111.899750,103.052910 113.895668,98.244202 115.737946,93.805656 
	C112.659813,93.805656 110.117523,93.805656 107.100060,93.805656 
	C107.100060,97.652534 107.100060,101.437050 107.103096,106.144981 
z"/>
<path fill="#EEF0F3" opacity="1.000000" stroke="none" 
	d="
M38.275024,108.855553 
	C32.826057,106.347397 30.420937,102.361641 30.977184,96.731903 
	C31.429735,92.151657 33.918240,88.890999 38.219032,87.483116 
	C43.222912,85.845078 47.700081,86.937134 52.274704,92.724739 
	C49.446770,92.567322 47.554817,92.990143 46.278572,92.290245 
	C42.695717,90.325378 39.470592,90.422836 36.843716,93.469154 
	C34.397720,96.305702 34.380074,99.721153 36.754261,102.621658 
	C39.346218,105.788239 42.640087,105.693069 46.201298,103.966103 
	C47.556156,103.309074 49.296818,103.447624 50.965508,103.829483 
	C48.135014,109.345314 43.641762,109.851013 38.275024,108.855553 
z"/>
<path fill="#EFF1F4" opacity="1.000000" stroke="none" 
	d="
M71.775101,108.871948 
	C71.243576,106.455978 71.192345,104.143372 71.007538,101.841484 
	C70.627571,97.108803 70.176155,92.381866 69.730583,87.388527 
	C70.856895,87.388527 72.613678,87.388527 74.783325,87.388527 
	C74.939980,89.467896 75.110046,91.725266 75.298935,94.232422 
	C79.099655,92.549690 83.223640,91.938072 85.568832,95.752129 
	C87.010063,98.096031 87.449120,101.739853 86.860695,104.483055 
	C86.039482,108.311600 82.688858,109.697151 78.697891,109.234192 
	C76.549324,108.984947 74.363777,109.054474 71.775101,108.871948 
M76.181740,104.104607 
	C78.660767,106.188248 81.251396,106.296280 82.890999,103.435104 
	C83.603760,102.191315 83.456650,99.384674 82.544632,98.549294 
	C81.390526,97.492149 78.051773,96.864540 77.447273,97.575462 
	C76.239304,98.996078 76.251572,101.454285 76.181740,104.104607 
z"/>
<path fill="#0848EC" opacity="1.000000" stroke="none" 
	d="
M147.295135,93.089966 
	C149.501007,91.619896 151.436020,90.408813 153.371017,89.197739 
	C153.728882,89.698540 154.086761,90.199341 154.444626,90.700142 
	C152.411728,93.426453 150.378845,96.152771 148.184845,99.095131 
	C150.531494,101.954727 152.900085,104.841064 155.383713,107.867577 
	C149.607025,111.364670 148.683624,105.450768 145.395233,103.329170 
	C144.292786,104.590591 143.347992,106.147369 141.979874,107.089119 
	C140.849670,107.867096 139.218964,107.917992 137.810043,108.291061 
	C138.138458,106.995529 138.436249,105.690796 138.820084,104.411896 
	C138.900818,104.142899 139.333374,103.998535 139.543365,103.746399 
	C142.232407,100.517845 142.843765,97.391632 139.432831,94.136467 
	C138.170258,92.931526 137.355545,91.257294 136.336578,89.797089 
	C136.610046,89.377930 136.883499,88.958763 137.156952,88.539604 
	C139.012070,89.424965 140.872192,90.300034 142.720703,91.198990 
	C144.162704,91.900246 145.590271,92.631195 147.295135,93.089966 
z"/>
<path fill="#ECEEF1" opacity="1.000000" stroke="none" 
	d="
M94.125534,103.768433 
	C95.984169,104.539528 97.792023,104.928146 99.619316,105.169754 
	C101.044373,105.358185 102.493599,105.363846 104.621353,105.492348 
	C100.465744,109.717079 95.892494,110.501724 92.479881,107.932999 
	C89.002480,105.315498 88.049232,101.795723 89.819176,97.758545 
	C91.532104,93.851410 94.776054,92.492668 98.790787,93.118225 
	C102.995110,93.773323 105.022484,97.065941 104.859177,102.690750 
	C101.282394,102.900482 97.682762,103.111549 94.125534,103.768433 
z"/>
<path fill="#E9ECEE" opacity="1.000000" stroke="none" 
	d="
M67.906418,95.628220 
	C66.207657,100.320282 64.661255,104.703781 62.975895,109.033188 
	C61.651718,112.434776 59.770550,115.279587 54.593948,115.012115 
	C55.075706,113.570862 55.168255,111.644020 55.913692,111.345039 
	C59.436539,109.932114 58.540874,107.807976 57.442394,105.342690 
	C55.829708,101.723412 54.363209,98.038979 52.827534,94.365829 
	C56.475590,93.212425 56.475590,93.212425 60.827816,103.025475 
	C61.938026,100.065804 62.703587,97.645691 63.773834,95.368797 
	C64.171066,94.523720 65.209480,93.681633 66.098129,93.485962 
	C66.575676,93.380806 67.355461,94.648247 67.906418,95.628220 
z"/>
<path fill="#F0F2F4" opacity="1.000000" stroke="none" 
	d="
M122.901978,95.656570 
	C125.861557,92.718048 126.774986,87.229233 132.984039,89.443192 
	C130.664627,92.605301 128.366547,95.738327 125.969223,99.006653 
	C128.308395,102.161736 130.554565,105.191368 133.031387,108.532120 
	C126.175102,110.558311 125.342911,104.217026 122.183464,101.441956 
	C119.903740,99.439598 121.099449,97.640808 122.901978,95.656570 
z"/>
<path fill="#EFF3F5" opacity="1.000000" stroke="none" 
	d="
M163.313538,89.150139 
	C166.102036,92.400970 168.516235,95.540543 171.298828,99.159210 
	C166.950302,102.163780 166.781540,110.031372 157.576630,108.688400 
	C165.887283,102.323898 166.782288,96.079918 157.389206,89.384789 
	C160.253082,89.206291 161.596146,89.122581 163.313538,89.150139 
z"/>
<path fill="#E7E9EC" opacity="1.000000" stroke="none" 
	d="
M107.101578,105.683273 
	C107.100060,101.437050 107.100060,97.652534 107.100060,93.805656 
	C110.117523,93.805656 112.659813,93.805656 115.737946,93.805656 
	C113.895668,98.244202 111.899750,103.052910 109.903831,107.861618 
	C108.743721,109.358841 106.820145,109.655777 107.101578,105.683273 
z"/>
<path fill="#20252F" opacity="1.000000" stroke="none" 
	d="
M75.970840,103.794319 
	C76.251572,101.454285 76.239304,98.996078 77.447273,97.575462 
	C78.051773,96.864540 81.390526,97.492149 82.544632,98.549294 
	C83.456650,99.384674 83.603760,102.191315 82.890999,103.435104 
	C81.251396,106.296280 78.660767,106.188248 75.970840,103.794319 
z"/>
</svg>